<?xml version="1.0" encoding="UTF-8" standalone="no"?>
<!-- Created with Inkscape (http://www.inkscape.org/) -->

<svg
   xmlns:dc="http://purl.org/dc/elements/1.1/"
   xmlns:cc="http://creativecommons.org/ns#"
   xmlns:rdf="http://www.w3.org/1999/02/22-rdf-syntax-ns#"
   xmlns:svg="http://www.w3.org/2000/svg"
   xmlns="http://www.w3.org/2000/svg"
   xmlns:sodipodi="http://sodipodi.sourceforge.net/DTD/sodipodi-0.dtd"
   xmlns:inkscape="http://www.inkscape.org/namespaces/inkscape"
   width="185.42mm"
   height="202.35333mm"
   viewBox="0 0 656.99999 716.99999"
   id="svg2"
   version="1.1"
   inkscape:version="0.91 r13725"
   sodipodi:docname="Frame192Colour3.svg">
  <sodipodi:namedview
     id="base"
     pagecolor="#ffffff"
     bordercolor="#666666"
     borderopacity="1.0"
     inkscape:pageopacity="0.0"
     inkscape:pageshadow="2"
     inkscape:zoom="0.73919107"
     inkscape:cx="328.5"
     inkscape:cy="358.5"
     inkscape:document-units="px"
     inkscape:current-layer="layer1"
     showgrid="true"
     inkscape:object-paths="true"
     inkscape:snap-intersection-paths="true"
     inkscape:object-nodes="true"
     inkscape:snap-smooth-nodes="true"
     fit-margin-top="0"
     fit-margin-left="0"
     fit-margin-right="0"
     fit-margin-bottom="0"
     inkscape:window-width="1366"
     inkscape:window-height="705"
     inkscape:window-x="-8"
     inkscape:window-y="-8"
     inkscape:window-maximized="1" />
  <defs
     id="defs4" />
  <metadata
     id="metadata7">
    <rdf:RDF>
      <cc:Work
         rdf:about="">
        <dc:format>image/svg+xml</dc:format>
        <dc:type
           rdf:resource="http://purl.org/dc/dcmitype/StillImage" />
        <dc:title></dc:title>
      </cc:Work>
    </rdf:RDF>
  </metadata>
  <g
     inkscape:label="Layer 1"
     inkscape:groupmode="layer"
     id="layer1"
     transform="translate(-1371.5,-83.86133)">
    <g
       id="g4999"
       transform="matrix(3,0,0,3,-3400,-884.72266)">
      <path
         inkscape:connector-curvature="0"
         id="rect4149"
         d="m 1610.5,342.86133 0,9 9,0 0,-9 -9,0 z m 10,0 0,9 9,0 0,-9 -9,0 z m 10,0 0,9 9,0 0,-9 -9,0 z m 10,0 0,9 9,0 0,-9 -9,0 z m 20,0 0,9 9,0 0,-9 -9,0 z m 10,0 0,9 9,0 0,-9 -9,0 z m 10,0 0,9 9,0 0,-9 -9,0 z m 10,0 0,9 9,0 0,-9 -9,0 z m 20,0 0,9 9,0 0,-9 -9,0 z m 10,0 0,9 9,0 0,-9 -9,0 z m 10,0 0,9 9,0 0,-9 -9,0 z m 10,0 0,9 9,0 0,-9 -9,0 z m 20,0 0,9 9,0 0,-9 -9,0 z m 10,0 0,9 9,0 0,-9 -9,0 z m -160,10 0,9 9,0 0,-9 -9,0 z m 0,10 0,9 9,0 0,-9 -9,0 z m 170,0 0,9 9,0 0,-9 -9,0 z m -170,10 0,9 9,0 0,-9 -9,0 z m 170,0 0,9 9,0 0,-9 -9,0 z m 0,10 0,9 9,0 0,-9 -9,0 z m -170,10 0,9 9,0 0,-9 -9,0 z m 170,0 0,9 9,0 0,-9 -9,0 z m -170,10 0,9 9,0 0,-9 -9,0 z m 170,10 0,9 9,0 0,-9 -9,0 z m -170,10 0,9 9,0 0,-9 -9,0 z m 170,0 0,9 9,0 0,-9 -9,0 z m -170,10 0,9 9,0 0,-9 -9,0 z m 170,0 0,9 9,0 0,-9 -9,0 z m -170,10 0,9 9,0 0,-9 -9,0 z m 0,10 0,9 9,0 0,-9 -9,0 z m 170,0 0,9 9,0 0,-9 -9,0 z m -170,10 0,9 9,0 0,-9 -9,0 z m 170,0 0,9 9,0 0,-9 -9,0 z m -170,10 0,9 9,0 0,-9 -9,0 z m 170,0 0,9 9,0 0,-9 -9,0 z m -170,10 0,9 9,0 0,-9 -9,0 z m 170,0 0,9 9,0 0,-9 -9,0 z m -170,10 0,9 9,0 0,-9 -9,0 z m 170,0 0,9 9,0 0,-9 -9,0 z m -170,20 0,9 9,0 0,-9 -9,0 z m 0,10 0,9 9,0 0,-9 -9,0 z m 170,0 0,9 9,0 0,-9 -9,0 z m -160,10 0,9 9,0 0,-9 -9,0 z m 20,0 0,9 9,0 0,-9 -9,0 z m 20,0 0,9 9,0 0,-9 -9,0 z m 10,0 0,9 9,0 0,-9 -9,0 z m 10,0 0,9 9,0 0,-9 -9,0 z m 10,0 0,9 9,0 0,-9 -9,0 z m 10,0 0,9 9,0 0,-9 -9,0 z m 10,0 0,9 9,0 0,-9 -9,0 z m 10,0 0,9 9,0 0,-9 -9,0 z m 20,0 0,9 9,0 0,-9 -9,0 z m 10,0 0,9 9,0 0,-9 -9,0 z m 10,0 0,9 9,0 0,-9 -9,0 z m 10,0 0,9 9,0 0,-9 -9,0 z m 10,0 0,9 9,0 0,-9 -9,0 z"
         style="opacity:1;fill:#9a9a00;fill-opacity:1;stroke:none;stroke-width:21.875;stroke-linecap:round;stroke-miterlimit:4;stroke-dasharray:none;stroke-dashoffset:0;stroke-opacity:1" />
      <path
         inkscape:connector-curvature="0"
         id="rect4353"
         d="m 1640.5,352.86133 0,9 9,0 0,-9 -9,0 z m 10,0 0,9 9,0 0,-9 -9,0 z m 20,0 0,9 9,0 0,-9 -9,0 z m 30,0 0,9 9,0 0,-9 -9,0 z m 20,0 0,9 9,0 0,-9 -9,0 z m 10,0 0,9 9,0 0,-9 -9,0 z m 20,0 0,9 9,0 0,-9 -9,0 z m 10,0 0,9 9,0 0,-9 -9,0 z m 10,10 0,9 9,0 0,-9 -9,0 z m -150,10 0,9 9,0 0,-9 -9,0 z m 0,10 0,9 9,0 0,-9 -9,0 z m 150,10 0,9 9,0 0,-9 -9,0 z m 0,10 0,9 9,0 0,-9 -9,0 z m -150,10 0,9 9,0 0,-9 -9,0 z m 150,0 0,9 9,0 0,-9 -9,0 z m -150,10 0,9 9,0 0,-9 -9,0 z m 0,10 0,9 9,0 0,-9 -9,0 z m 0,10 0,9 9,0 0,-9 -9,0 z m 150,0 0,9 9,0 0,-9 -9,0 z m 0,10 0,9 9,0 0,-9 -9,0 z m -150,10 0,9 9,0 0,-9 -9,0 z m 150,10 0,9 9,0 0,-9 -9,0 z m -150,10 0,9 9,0 0,-9 -9,0 z m 150,0 0,9 9,0 0,-9 -9,0 z m 0,20 0,9 9,0 0,-9 -9,0 z m -150,10 0,9 9,0 0,-9 -9,0 z m 150,0 0,9 9,0 0,-9 -9,0 z m -140,10 0,9 9,0 0,-9 -9,0 z m 10,0 0,9 9,0 0,-9 -9,0 z m 30,0 0,9 9,0 0,-9 -9,0 z m 20,0 0,9 9,0 0,-9 -9,0 z m 10,0 0,9 9,0 0,-9 -9,0 z m 20,0 0,9 9,0 0,-9 -9,0 z m 10,0 0,9 9,0 0,-9 -9,0 z m 30,0 0,9 9,0 0,-9 -9,0 z"
         style="opacity:1;fill:#aeae00;fill-opacity:1;stroke:none;stroke-width:21.875;stroke-linecap:round;stroke-miterlimit:4;stroke-dasharray:none;stroke-dashoffset:0;stroke-opacity:1" />
      <path
         inkscape:connector-curvature="0"
         id="rect4481"
         d="m 1630.5,362.86133 0,9 9,0 0,-9 -9,0 z m 30,0 0,9 9,0 0,-9 -9,0 z m 20,0 0,9 9,0 0,-9 -9,0 z m 20,0 0,9 9,0 0,-9 -9,0 z m 30,0 0,9 9,0 0,-9 -9,0 z m 30,10 0,9 9,0 0,-9 -9,0 z m -130,20 0,9 9,0 0,-9 -9,0 z m 130,10 0,9 9,0 0,-9 -9,0 z m -130,10 0,9 9,0 0,-9 -9,0 z m 0,20 0,9 9,0 0,-9 -9,0 z m 130,0 0,9 9,0 0,-9 -9,0 z m 0,10 0,9 9,0 0,-9 -9,0 z m -130,10 0,9 9,0 0,-9 -9,0 z m 130,10 0,9 9,0 0,-9 -9,0 z m -130,20 0,9 9,0 0,-9 -9,0 z m 0,10 0,9 9,0 0,-9 -9,0 z m 0,20 0,9 9,0 0,-9 -9,0 z m 20,0 0,9 9,0 0,-9 -9,0 z m 30,0 0,9 9,0 0,-9 -9,0 z m 30,0 0,9 9,0 0,-9 -9,0 z m 30,0 0,9 9,0 0,-9 -9,0 z"
         style="opacity:1;fill:#c2c200;fill-opacity:1;stroke:none;stroke-width:21.875;stroke-linecap:round;stroke-miterlimit:4;stroke-dasharray:none;stroke-dashoffset:0;stroke-opacity:1" />
      <path
         inkscape:connector-curvature="0"
         id="rect4591"
         d="m 1600.5,332.86133 0,9 9,0 0,-9 -9,0 z m 10,0 0,9 9,0 0,-9 -9,0 z m 10,0 0,9 9,0 0,-9 -9,0 z m 10,0 0,9 9,0 0,-9 -9,0 z m 10,0 0,9 9,0 0,-9 -9,0 z m 10,0 0,9 9,0 0,-9 -9,0 z m 10,0 0,9 9,0 0,-9 -9,0 z m 10,0 0,9 9,0 0,-9 -9,0 z m 20,0 0,9 9,0 0,-9 -9,0 z m 10,0 0,9 9,0 0,-9 -9,0 z m 10,0 0,9 9,0 0,-9 -9,0 z m 10,0 0,9 9,0 0,-9 -9,0 z m 10,0 0,9 9,0 0,-9 -9,0 z m 10,0 0,9 9,0 0,-9 -9,0 z m 10,0 0,9 9,0 0,-9 -9,0 z m 10,0 0,9 9,0 0,-9 -9,0 z m 10,0 0,9 9,0 0,-9 -9,0 z m 10,0 0,9 9,0 0,-9 -9,0 z m 10,0 0,9 9,0 0,-9 -9,0 z m -190,10 0,9 9,0 0,-9 -9,0 z m 190,0 0,9 9,0 0,-9 -9,0 z m -190,10 0,9 9,0 0,-9 -9,0 z m 190,0 0,9 9,0 0,-9 -9,0 z m -190,10 0,9 9,0 0,-9 -9,0 z m 190,0 0,9 9,0 0,-9 -9,0 z m -190,10 0,9 9,0 0,-9 -9,0 z m 190,0 0,9 9,0 0,-9 -9,0 z m -190,10 0,9 9,0 0,-9 -9,0 z m 190,0 0,9 9,0 0,-9 -9,0 z m -190,10 0,9 9,0 0,-9 -9,0 z m 190,0 0,9 9,0 0,-9 -9,0 z m -190,10 0,9 9,0 0,-9 -9,0 z m 190,0 0,9 9,0 0,-9 -9,0 z m -190,10 0,9 9,0 0,-9 -9,0 z m 0,10 0,9 9,0 0,-9 -9,0 z m 190,0 0,9 9,0 0,-9 -9,0 z m -190,10 0,9 9,0 0,-9 -9,0 z m 190,0 0,9 9,0 0,-9 -9,0 z m -190,10 0,9 9,0 0,-9 -9,0 z m 190,0 0,9 9,0 0,-9 -9,0 z m -190,10 0,9 9,0 0,-9 -9,0 z m 190,0 0,9 9,0 0,-9 -9,0 z m -190,10 0,9 9,0 0,-9 -9,0 z m 190,0 0,9 9,0 0,-9 -9,0 z m 0,10 0,9 9,0 0,-9 -9,0 z m -190,10 0,9 9,0 0,-9 -9,0 z m 190,0 0,9 9,0 0,-9 -9,0 z m -190,10 0,9 9,0 0,-9 -9,0 z m 190,0 0,9 9,0 0,-9 -9,0 z m -190,10 0,9 9,0 0,-9 -9,0 z m 190,0 0,9 9,0 0,-9 -9,0 z m -190,10 0,9 9,0 0,-9 -9,0 z m 190,0 0,9 9,0 0,-9 -9,0 z m -190,10 0,9 9,0 0,-9 -9,0 z m 190,0 0,9 9,0 0,-9 -9,0 z m -190,10 0,9 9,0 0,-9 -9,0 z m 190,0 0,9 9,0 0,-9 -9,0 z m -190,10 0,9 9,0 0,-9 -9,0 z m 10,0 0,9 9,0 0,-9 -9,0 z m 10,0 0,9 9,0 0,-9 -9,0 z m 10,0 0,9 9,0 0,-9 -9,0 z m 10,0 0,9 9,0 0,-9 -9,0 z m 10,0 0,9 9,0 0,-9 -9,0 z m 10,0 0,9 9,0 0,-9 -9,0 z m 10,0 0,9 9,0 0,-9 -9,0 z m 20,0 0,9 9,0 0,-9 -9,0 z m 10,0 0,9 9,0 0,-9 -9,0 z m 10,0 0,9 9,0 0,-9 -9,0 z m 10,0 0,9 9,0 0,-9 -9,0 z m 10,0 0,9 9,0 0,-9 -9,0 z m 10,0 0,9 9,0 0,-9 -9,0 z m 10,0 0,9 9,0 0,-9 -9,0 z m 10,0 0,9 9,0 0,-9 -9,0 z m 10,0 0,9 9,0 0,-9 -9,0 z m 10,0 0,9 9,0 0,-9 -9,0 z m 10,0 0,9 9,0 0,-9 -9,0 z"
         style="opacity:1;fill:#868600;fill-opacity:1;stroke:none;stroke-width:21.875;stroke-linecap:round;stroke-miterlimit:4;stroke-dasharray:none;stroke-dashoffset:0;stroke-opacity:1" />
      <path
         inkscape:connector-curvature="0"
         id="rect4751"
         d="m 1590.5,322.86133 0,9 9,0 0,-9 -9,0 z m 10,0 0,9 9,0 0,-9 -9,0 z m 10,0 0,9 9,0 0,-9 -9,0 z m 10,0 0,9 9,0 0,-9 -9,0 z m 10,0 0,9 9,0 0,-9 -9,0 z m 10,0 0,9 9,0 0,-9 -9,0 z m 10,0 0,9 9,0 0,-9 -9,0 z m 10,0 0,9 9,0 0,-9 -9,0 z m 10,0 0,9 9,0 0,-9 -9,0 z m 10,0 0,9 9,0 0,-9 -9,0 z m 10,0 0,9 9,0 0,-9 -9,0 z m 10,0 0,9 9,0 0,-9 -9,0 z m 10,0 0,9 9,0 0,-9 -9,0 z m 10,0 0,9 9,0 0,-9 -9,0 z m 10,0 0,9 9,0 0,-9 -9,0 z m 10,0 0,9 9,0 0,-9 -9,0 z m 10,0 0,9 9,0 0,-9 -9,0 z m 10,0 0,9 9,0 0,-9 -9,0 z m 10,0 0,9 9,0 0,-9 -9,0 z m 10,0 0,9 9,0 0,-9 -9,0 z m 10,0 0,9 9,0 0,-9 -9,0 z m 10,0 0,9 9,0 0,-9 -9,0 z m -210,10 0,9 9,0 0,-9 -9,0 z m 210,0 0,9 9,0 0,-9 -9,0 z m -210,10 0,9 9,0 0,-9 -9,0 z m 210,0 0,9 9,0 0,-9 -9,0 z m -210,10 0,9 9,0 0,-9 -9,0 z m 210,0 0,9 9,0 0,-9 -9,0 z m -210,10 0,9 9,0 0,-9 -9,0 z m 210,0 0,9 9,0 0,-9 -9,0 z m -210,10 0,9 9,0 0,-9 -9,0 z m 210,0 0,9 9,0 0,-9 -9,0 z m -210,10 0,9 9,0 0,-9 -9,0 z m 210,0 0,9 9,0 0,-9 -9,0 z m -210,10 0,9 9,0 0,-9 -9,0 z m 210,0 0,9 9,0 0,-9 -9,0 z m -210,10 0,9 9,0 0,-9 -9,0 z m 210,0 0,9 9,0 0,-9 -9,0 z m -210,10 0,9 9,0 0,-9 -9,0 z m 210,0 0,9 9,0 0,-9 -9,0 z m -210,10 0,9 9,0 0,-9 -9,0 z m 210,0 0,9 9,0 0,-9 -9,0 z m -210,10 0,9 9,0 0,-9 -9,0 z m 210,0 0,9 9,0 0,-9 -9,0 z m -210,10 0,9 9,0 0,-9 -9,0 z m 210,0 0,9 9,0 0,-9 -9,0 z m -210,10 0,9 9,0 0,-9 -9,0 z m 210,0 0,9 9,0 0,-9 -9,0 z m -210,10 0,9 9,0 0,-9 -9,0 z m 210,0 0,9 9,0 0,-9 -9,0 z m -210,10 0,9 9,0 0,-9 -9,0 z m 210,0 0,9 9,0 0,-9 -9,0 z m -210,10 0,9 9,0 0,-9 -9,0 z m 210,0 0,9 9,0 0,-9 -9,0 z m -210,10 0,9 9,0 0,-9 -9,0 z m 210,0 0,9 9,0 0,-9 -9,0 z m -210,10 0,9 9,0 0,-9 -9,0 z m 210,0 0,9 9,0 0,-9 -9,0 z m -210,10 0,9 9,0 0,-9 -9,0 z m 210,0 0,9 9,0 0,-9 -9,0 z m -210,10 0,9 9,0 0,-9 -9,0 z m 210,0 0,9 9,0 0,-9 -9,0 z m -210,10 0,9 9,0 0,-9 -9,0 z m 210,0 0,9 9,0 0,-9 -9,0 z m -210,10 0,9 9,0 0,-9 -9,0 z m 210,0 0,9 9,0 0,-9 -9,0 z m -210,10 0,9 9,0 0,-9 -9,0 z m 10,0 0,9 9,0 0,-9 -9,0 z m 10,0 0,9 9,0 0,-9 -9,0 z m 10,0 0,9 9,0 0,-9 -9,0 z m 10,0 0,9 9,0 0,-9 -9,0 z m 10,0 0,9 9,0 0,-9 -9,0 z m 10,0 0,9 9,0 0,-9 -9,0 z m 10,0 0,9 9,0 0,-9 -9,0 z m 10,0 0,9 9,0 0,-9 -9,0 z m 10,0 0,9 9,0 0,-9 -9,0 z m 10,0 0,9 9,0 0,-9 -9,0 z m 10,0 0,9 9,0 0,-9 -9,0 z m 10,0 0,9 9,0 0,-9 -9,0 z m 10,0 0,9 9,0 0,-9 -9,0 z m 10,0 0,9 9,0 0,-9 -9,0 z m 10,0 0,9 9,0 0,-9 -9,0 z m 10,0 0,9 9,0 0,-9 -9,0 z m 10,0 0,9 9,0 0,-9 -9,0 z m 10,0 0,9 9,0 0,-9 -9,0 z m 10,0 0,9 9,0 0,-9 -9,0 z m 10,0 0,9 9,0 0,-9 -9,0 z m 10,0 0,9 9,0 0,-9 -9,0 z"
         style="opacity:1;fill:#727200;fill-opacity:1;stroke:none;stroke-width:21.875;stroke-linecap:round;stroke-miterlimit:4;stroke-dasharray:none;stroke-dashoffset:0;stroke-opacity:1" />
      <path
         inkscape:connector-curvature="0"
         id="rect4927"
         d="m 1650.5,372.86133 0,9 9,0 0,-9 -9,0 z m 60,0 0,9 9,0 0,-9 -9,0 z m 40,20 0,9 9,0 0,-9 -9,0 z m -110,30 0,9 9,0 0,-9 -9,0 z m 0,50 0,9 9,0 0,-9 -9,0 z m 110,0 0,9 9,0 0,-9 -9,0 z m -80,30 0,9 9,0 0,-9 -9,0 z m 60,0 0,9 9,0 0,-9 -9,0 z"
         style="opacity:1;fill:#d6d600;fill-opacity:1;stroke:none;stroke-width:21.875;stroke-linecap:round;stroke-miterlimit:4;stroke-dasharray:none;stroke-dashoffset:0;stroke-opacity:1" />
    </g>
  </g>
</svg>
